<svg width="163" height="38" viewBox="0 0 163 38" fill="none" xmlns="http://www.w3.org/2000/svg">
<path d="M0.160511 37V0.636363H14.7202C17.3954 0.636363 19.6267 1.03291 21.4141 1.82599C23.2015 2.61908 24.545 3.71993 25.4446 5.12855C26.3442 6.52533 26.794 8.13518 26.794 9.9581C26.794 11.3786 26.5099 12.6274 25.9418 13.7045C25.3736 14.7699 24.5923 15.6458 23.598 16.3324C22.6155 17.0071 21.491 17.4865 20.2244 17.7706V18.1257C21.6094 18.1849 22.9055 18.5755 24.1129 19.2976C25.3322 20.0196 26.3205 21.0317 27.0781 22.3338C27.8357 23.6241 28.2145 25.1629 28.2145 26.9503C28.2145 28.8797 27.7351 30.602 26.7763 32.1172C25.8293 33.6205 24.4266 34.8101 22.5682 35.6861C20.7098 36.562 18.4193 37 15.6967 37H0.160511ZM7.84872 30.7145H14.1165C16.259 30.7145 17.8215 30.3061 18.804 29.4893C19.7865 28.6607 20.2777 27.5599 20.2777 26.1868C20.2777 25.1806 20.035 24.2929 19.5497 23.5234C19.0644 22.754 18.3719 22.1503 17.4723 21.7124C16.5845 21.2744 15.5251 21.0554 14.294 21.0554H7.84872V30.7145ZM7.84872 15.853H13.5483C14.6018 15.853 15.5369 15.6695 16.3537 15.3026C17.1823 14.9238 17.8333 14.3911 18.3068 13.7045C18.7921 13.018 19.0348 12.1953 19.0348 11.2365C19.0348 9.92259 18.5672 8.86316 17.6321 8.05824C16.7088 7.25331 15.3949 6.85085 13.6903 6.85085H7.84872V15.853ZM40.8521 37.5149C39.112 37.5149 37.5614 37.2131 36.2001 36.6094C34.8388 35.9938 33.7617 35.0883 32.9686 33.8928C32.1873 32.6854 31.7967 31.1821 31.7967 29.3828C31.7967 27.8677 32.0749 26.5952 32.6312 25.5653C33.1876 24.5355 33.9451 23.7069 34.9039 23.0795C35.8627 22.4522 36.9518 21.9787 38.171 21.6591C39.402 21.3395 40.6923 21.1146 42.0417 20.9844C43.6279 20.8187 44.9063 20.6648 45.877 20.5227C46.8476 20.3688 47.5519 20.1439 47.9899 19.848C48.4279 19.5521 48.6468 19.1141 48.6468 18.5341V18.4276C48.6468 17.303 48.2917 16.433 47.5815 15.8175C46.8831 15.2019 45.8888 14.8942 44.5985 14.8942C43.2373 14.8942 42.1542 15.196 41.3493 15.7997C40.5443 16.3916 40.0117 17.1373 39.7512 18.0369L32.7555 17.4688C33.1106 15.8116 33.809 14.3793 34.8507 13.1719C35.8923 11.9527 37.2359 11.0175 38.8812 10.3665C40.5384 9.7036 42.456 9.37216 44.6341 9.37216C46.1492 9.37216 47.5993 9.54972 48.9842 9.90483C50.381 10.2599 51.618 10.8104 52.6951 11.5561C53.7842 12.3018 54.6423 13.2607 55.2697 14.4325C55.8971 15.5926 56.2108 16.9834 56.2108 18.6051V37H49.0375V33.218H48.8244C48.3864 34.0703 47.8005 34.822 47.0666 35.473C46.3327 36.1122 45.4508 36.6153 44.421 36.9822C43.3912 37.3374 42.2015 37.5149 40.8521 37.5149ZM43.0183 32.2947C44.131 32.2947 45.1135 32.0758 45.9657 31.6378C46.818 31.188 47.4868 30.5843 47.9721 29.8267C48.4574 29.0691 48.7001 28.2109 48.7001 27.2521V24.358C48.4634 24.5118 48.1378 24.6539 47.7235 24.7841C47.3211 24.9025 46.8654 25.0149 46.3564 25.1214C45.8474 25.2161 45.3384 25.3049 44.8294 25.3878C44.3204 25.4588 43.8587 25.5239 43.4444 25.5831C42.5566 25.7133 41.7813 25.9205 41.1184 26.2045C40.4556 26.4886 39.9406 26.8733 39.5737 27.3587C39.2067 27.8321 39.0233 28.424 39.0233 29.1342C39.0233 30.1641 39.3961 30.9512 40.1419 31.4957C40.8994 32.0284 41.8583 32.2947 43.0183 32.2947ZM69.6429 0.636363V37H62.079V0.636363H69.6429ZM83.266 0.636363V37H75.7021V0.636363H83.266ZM101.754 37.5327C98.9487 37.5327 96.5339 36.9645 94.5098 35.8281C92.4975 34.6799 90.9468 33.0582 89.8578 30.9631C88.7688 28.8561 88.2243 26.3643 88.2243 23.4879C88.2243 20.6825 88.7688 18.2204 89.8578 16.1016C90.9468 13.9827 92.4797 12.3314 94.4565 11.1477C96.4451 9.96401 98.777 9.37216 101.452 9.37216C103.251 9.37216 104.926 9.66217 106.477 10.2422C108.04 10.8104 109.401 11.6686 110.561 12.8168C111.733 13.965 112.644 15.4091 113.295 17.1491C113.946 18.8774 114.272 20.9015 114.272 23.2216V25.299H91.2427V20.6115H107.152C107.152 19.5225 106.915 18.5578 106.442 17.7173C105.968 16.8769 105.311 16.2199 104.471 15.7464C103.642 15.2611 102.677 15.0185 101.577 15.0185C100.428 15.0185 99.4103 15.2848 98.5225 15.8175C97.6466 16.3383 96.96 17.0426 96.4629 17.9304C95.9657 18.8063 95.7112 19.7829 95.6994 20.8601V25.3168C95.6994 26.6662 95.948 27.8321 96.4451 28.8146C96.9541 29.7971 97.6703 30.5547 98.5936 31.0874C99.5169 31.62 100.612 31.8864 101.878 31.8864C102.719 31.8864 103.488 31.768 104.187 31.5312C104.885 31.2945 105.483 30.9394 105.98 30.4659C106.477 29.9924 106.856 29.4124 107.116 28.7259L114.112 29.1875C113.757 30.8684 113.029 32.3362 111.928 33.5909C110.839 34.8338 109.43 35.8045 107.702 36.5028C105.986 37.1894 104.003 37.5327 101.754 37.5327ZM119.208 37V9.72727H126.541V14.4858H126.825C127.322 12.7931 128.157 11.5147 129.329 10.6506C130.501 9.77462 131.85 9.33665 133.377 9.33665C133.756 9.33665 134.164 9.36032 134.602 9.40767C135.04 9.45502 135.425 9.52012 135.756 9.60298V16.3146C135.401 16.2081 134.91 16.1134 134.282 16.0305C133.655 15.9477 133.081 15.9062 132.56 15.9062C131.448 15.9062 130.453 16.1489 129.577 16.6342C128.713 17.1077 128.027 17.7706 127.518 18.6229C127.02 19.4751 126.772 20.4576 126.772 21.5703V37H119.208ZM162.359 17.5043L155.434 17.9304C155.316 17.3385 155.061 16.8059 154.67 16.3324C154.28 15.8471 153.765 15.4624 153.126 15.1783C152.498 14.8823 151.747 14.7344 150.871 14.7344C149.699 14.7344 148.71 14.983 147.906 15.4801C147.101 15.9654 146.698 16.6165 146.698 17.4332C146.698 18.0843 146.959 18.6347 147.479 19.0845C148 19.5343 148.894 19.8954 150.161 20.1676L155.097 21.1619C157.748 21.7064 159.725 22.5824 161.027 23.7898C162.329 24.9972 162.98 26.5833 162.98 28.5483C162.98 30.3357 162.453 31.9041 161.4 33.2536C160.358 34.603 158.926 35.6565 157.103 36.4141C155.292 37.1598 153.203 37.5327 150.835 37.5327C147.225 37.5327 144.348 36.781 142.206 35.2777C140.075 33.7625 138.826 31.7029 138.46 29.0987L145.899 28.7081C146.124 29.8089 146.669 30.6494 147.533 31.2294C148.397 31.7976 149.504 32.0817 150.853 32.0817C152.179 32.0817 153.244 31.8272 154.049 31.3182C154.866 30.7973 155.28 30.1286 155.292 29.3118C155.28 28.6252 154.99 28.063 154.422 27.625C153.854 27.1752 152.978 26.8319 151.794 26.5952L147.071 25.6541C144.408 25.1214 142.425 24.1982 141.123 22.8842C139.833 21.5703 139.188 19.8954 139.188 17.8594C139.188 16.1075 139.661 14.5982 140.608 13.3317C141.567 12.0651 142.91 11.0885 144.638 10.402C146.379 9.71544 148.415 9.37216 150.746 9.37216C154.191 9.37216 156.902 10.1001 158.879 11.5561C160.867 13.0121 162.027 14.9948 162.359 17.5043Z" fill="#FC4100"/>
</svg>
